<svg width="87" height="64" viewBox="0 0 87 64" fill="none" xmlns="http://www.w3.org/2000/svg">
<path d="M38.0293 54.6501C38.0293 49.3702 38.0535 46.2094 38.0898 46.1428C38.1383 46.052 39.7731 44.9379 41.6623 43.7087C41.9469 43.5271 43.2427 42.6673 44.5445 41.8075C45.8524 40.9416 47.0331 40.1665 47.1784 40.0757C47.3237 39.9849 47.8929 39.6095 48.4439 39.2462C48.9949 38.8768 49.5823 38.4954 49.7457 38.3924C49.9153 38.2895 50.1756 38.12 50.3331 38.011C51.1445 37.4539 51.9498 36.9756 51.9922 37.0179C52.0043 37.03 52.0345 40.8387 52.0527 45.4828L52.0951 53.9235L51.7076 54.1597C51.4956 54.2868 51.2232 54.4564 51.1081 54.529C50.9931 54.6017 50.6782 54.8015 50.4118 54.9711C50.1454 55.1406 49.4127 55.6189 48.7769 56.0367C48.1472 56.4485 47.3116 56.9934 46.9302 57.2417C46.5487 57.4899 45.7192 58.0349 45.0834 58.4466C44.4537 58.8584 43.6786 59.3609 43.3698 59.5608C42.2799 60.251 41.4988 60.7657 39.8155 61.8798C38.8831 62.4974 38.102 63.0182 38.0777 63.0242C38.0475 63.0363 38.0293 59.2701 38.0293 54.6501Z" fill="black"/>
<path d="M30.5823 62.1341C29.8678 61.6679 29.0928 61.1653 28.8566 61.02C28.2451 60.6264 26.586 59.5486 25.4658 58.8099C24.5213 58.1923 23.9581 57.8169 22.1659 56.618C21.2516 56.0064 20.1314 55.2859 19.7136 55.0437C19.5804 54.965 19.1686 54.6986 18.7932 54.4564C18.4239 54.2142 18.0848 54.0143 18.0485 54.0143C17.9213 54.0143 17.8789 53.7176 17.8971 52.9184C17.9092 52.4703 17.9152 48.7102 17.9213 44.5564C17.9274 39.5186 17.9455 36.9998 17.9879 36.9998C18.0485 36.9998 18.4178 37.2359 20.2585 38.453C20.7914 38.8041 21.2697 39.119 21.3303 39.1493C21.3848 39.1856 21.7844 39.446 22.2082 39.7306C22.6321 40.0212 23.4314 40.548 23.9824 40.9052C24.5334 41.2625 25.2418 41.7287 25.5567 41.9346C25.8715 42.1405 26.2409 42.3706 26.3741 42.4493C26.6223 42.5946 28.7053 43.963 30.4431 45.1195C30.982 45.4768 31.5027 45.8159 31.5996 45.8643C32.0113 46.0762 31.975 45.277 31.975 54.5653C31.975 59.1914 31.9568 62.9758 31.9326 62.9758C31.9023 62.9758 31.2968 62.5943 30.5823 62.1341Z" fill="black"/>
<path d="M57.9742 49.7335C57.95 49.4732 57.95 44.0781 57.9682 37.7385C57.9924 30.6178 57.9863 26.1614 57.95 26.0705C57.9137 25.9797 57.8471 25.9192 57.7684 25.9192C57.6715 25.9192 56.5331 26.6397 54.4744 28.0142C54.2807 28.1413 54.0324 28.3048 53.9295 28.3654C53.8266 28.432 53.6328 28.5712 53.4996 28.6742C53.3664 28.7832 52.9849 29.0254 52.6519 29.2191C52.3189 29.4129 51.7497 29.7641 51.3803 30.0063C51.017 30.2424 50.5084 30.5694 50.2541 30.7329C49.9998 30.9024 49.6002 31.1628 49.3761 31.3142C48.5163 31.8833 47.5051 32.5494 47.4446 32.5797C47.4143 32.5978 47.2266 32.7189 47.0268 32.8521C46.5727 33.161 45.9066 33.5969 45.4464 33.8876C44.8228 34.2811 43.5936 35.0864 41.1776 36.685C39.894 37.5327 38.7072 38.3198 38.5377 38.4349C37.9624 38.8103 38.023 39.549 38.0351 31.7683L38.0472 24.8959L38.2046 24.7505C38.3863 24.587 41.8074 22.3164 43.8721 20.9904C44.2415 20.7542 44.6048 20.512 44.6895 20.4515C45.1316 20.1427 47.5112 18.6108 48.6556 17.8963C49.255 17.5208 50.0301 17.0183 50.351 16.8003C50.4539 16.7276 50.8051 16.4976 51.1381 16.2796C52.8093 15.1957 53.1605 14.9717 53.4209 14.8021C53.5783 14.7053 53.8932 14.4994 54.1172 14.342C54.9043 13.797 55.0739 13.682 55.5886 13.355C55.8731 13.1733 56.5755 12.7132 57.1508 12.3438C57.726 11.9684 58.4526 11.4961 58.7553 11.3023C59.0641 11.1086 59.5304 10.8058 59.7968 10.6302C60.0632 10.4546 60.5718 10.1277 60.9291 9.89758C62.4186 8.94089 63.0483 8.52915 64.1927 7.78438C64.8527 7.35448 65.6883 6.80953 66.0456 6.57944C66.7056 6.15559 68.51 4.98091 68.7885 4.78715C68.8733 4.73266 69.1639 4.53284 69.4364 4.34514C69.7149 4.15138 69.9511 4 69.9692 4C69.9874 4 69.9995 12.6345 69.9995 23.1944V42.3827L69.7452 42.5583C69.5999 42.6552 69.061 42.9882 68.5463 43.297C67.8197 43.733 63.9142 46.2943 62.9272 46.9846C62.788 47.0814 62.0614 47.5598 60.4023 48.6376C60.1722 48.7889 59.5546 49.2067 59.0399 49.5579C58.5252 49.9091 58.0832 50.1998 58.0651 50.1998C58.0408 50.1998 57.9985 49.9878 57.9742 49.7335Z" fill="black"/>
<path d="M11.4442 49.6713C11.099 49.4472 10.5844 49.1082 10.2998 48.9265C9.61555 48.4784 8.51354 47.7761 7.4963 47.1403C7.23593 46.9768 6.52749 46.5166 5.91594 46.117C5.29833 45.7174 4.45668 45.1724 4.03283 44.906C3.60898 44.6396 2.94292 44.2157 2.5554 43.9675C2.16788 43.7192 1.79247 43.4831 1.73192 43.4407C1.5866 43.3559 0.90844 42.9442 0.411929 42.6414C0.218169 42.5264 0.0425734 42.4053 0.0244084 42.375C-0.0119217 42.3144 -0.00586666 4.05281 0.0304634 4.01648C0.0607385 3.98621 0.575415 4.31318 3.62109 6.30528C5.43759 7.48601 6.90896 8.45481 7.76877 9.03609C8.0473 9.22379 8.64069 9.61737 9.08876 9.90801C9.53683 10.1987 10.1787 10.6164 10.5117 10.8405C10.8447 11.0585 11.1596 11.2704 11.2141 11.3007C11.2625 11.337 11.4018 11.4218 11.5168 11.4944C11.6319 11.5671 11.8317 11.6882 11.9588 11.7669C12.2313 11.9243 12.97 12.4087 15.1438 13.8438C15.9612 14.3827 16.7968 14.9337 17.0087 15.0608C17.2146 15.188 17.5597 15.4181 17.7777 15.5694C17.9896 15.7208 18.2803 15.9085 18.4135 15.9933C18.5527 16.0781 18.7162 16.1871 18.7768 16.2355C18.8373 16.2839 19.0371 16.4232 19.2309 16.5383C19.4186 16.6533 19.8667 16.9439 20.23 17.174C20.5872 17.4102 21.1201 17.7493 21.4047 17.9309C21.6953 18.1126 22.4401 18.597 23.0637 19.0087C23.6874 19.4144 24.3595 19.8564 24.5593 19.9836C25.3404 20.4922 27.1145 21.6668 27.2841 21.7879C27.4415 21.8969 30.0512 23.6226 31.3107 24.4461C32.0252 24.9123 31.9464 24.1918 31.9646 30.3074C31.9707 33.238 31.9828 36.3139 31.9949 37.1435C32.0009 38.0033 31.9828 38.639 31.9525 38.639C31.9222 38.639 31.1351 38.1304 30.2087 37.5068C29.2762 36.877 28.2226 36.1868 27.8714 35.9567C26.6967 35.2119 25.6977 34.564 24.196 33.571C23.3786 33.0261 22.7004 32.584 22.6883 32.584C22.6702 32.584 22.4461 32.4448 22.1858 32.2752C21.9254 32.1057 21.5379 31.8453 21.3199 31.7061C20.6902 31.2943 20.6417 31.264 20.3208 31.0461C19.7274 30.6464 18.6194 29.9319 18.2016 29.6776C17.9715 29.5384 17.5537 29.2841 17.2812 29.1145C17.0087 28.9389 16.6091 28.6907 16.4032 28.5635C16.1913 28.4364 15.8038 28.182 15.5374 28.0064C15.2709 27.8369 14.4656 27.3162 13.7511 26.862C12.7097 26.2021 12.413 26.0446 12.2676 26.0567L12.086 26.0749V29.7079C12.086 31.7061 12.1102 37.1071 12.1344 41.715C12.1647 46.5166 12.1647 50.083 12.1344 50.083C12.1042 50.083 11.7954 49.8953 11.4442 49.6713Z" fill="black"/>
<path d="M77.6787 2.89062H80.2617C80.8021 2.89062 81.266 2.97201 81.6533 3.13477C82.0407 3.29753 82.3385 3.53841 82.5469 3.85742C82.7552 4.17643 82.8594 4.56868 82.8594 5.03418C82.8594 5.40202 82.7943 5.72103 82.6641 5.99121C82.5339 6.26139 82.3499 6.48763 82.1123 6.66992C81.8779 6.85221 81.6012 6.99544 81.2822 7.09961L80.8623 7.31445H78.582L78.5723 6.25488H80.2764C80.5531 6.25488 80.7826 6.20605 80.9648 6.1084C81.1471 6.01074 81.2839 5.87565 81.375 5.70312C81.4694 5.5306 81.5166 5.33366 81.5166 5.1123C81.5166 4.87467 81.471 4.6696 81.3799 4.49707C81.2887 4.32129 81.1504 4.1862 80.9648 4.0918C80.7793 3.9974 80.5449 3.9502 80.2617 3.9502H79.0215V10H77.6787V2.89062ZM81.6924 10L80.0469 6.81641L81.4678 6.81152L83.1328 9.93164V10H81.6924Z" fill="black"/>
<circle cx="80" cy="7" r="6.5" stroke="black"/>
</svg>
